<?xml version="1.0" standalone="no"?>
<!DOCTYPE svg PUBLIC "-//W3C//DTD SVG 20010904//EN"
 "http://www.w3.org/TR/2001/REC-SVG-20010904/DTD/svg10.dtd">
<svg version="1.0" xmlns="http://www.w3.org/2000/svg"
 width="694.000000pt" height="694.000000pt" viewBox="0 0 694.000000 694.000000"
 preserveAspectRatio="xMidYMid meet">
<metadata>
Created by potrace 1.11, written by Peter Selinger 2001-2013
</metadata>
<g transform="translate(0.000000,694.000000) scale(0.100000,-0.100000)"
fill="#000000" stroke="none">
<path d="M15 6438 c1 -227 3 -415 4 -418 0 -3 184 -5 408 -4 225 1 410 -2 413
-7 3 -4 5 -509 5 -1123 l-1 -1116 408 0 408 0 0 1123 0 1124 430 -1 430 -1 0
73 c1 39 1 209 1 377 0 168 0 323 -1 345 l0 40 -1253 0 -1253 0 1 -412z"/>
<path d="M3490 6714 c-58 -74 -110 -140 -116 -147 -7 -8 -11 -68 -11 -163 l0
-151 751 -1 c413 0 760 -1 772 -1 l20 -1 0 -913 -1 -914 409 1 409 1 0 1062 0
1062 -53 68 c-29 37 -80 105 -114 150 l-61 82 -950 1 -950 0 -105 -136z"/>
<path d="M3534 6202 l-171 -2 0 -1058 c0 -954 1 -1060 16 -1087 9 -16 18 -32
22 -35 3 -3 18 -23 35 -45 16 -22 34 -44 40 -50 5 -5 34 -43 64 -83 l54 -72
947 0 947 0 42 53 c22 28 75 96 117 150 l75 98 1 151 1 151 -425 -3 c-382 -2
-1039 -2 -1096 -1 l-23 1 0 915 0 914 -211 3 c-116 2 -216 0 -222 -4 -6 -4
-18 -4 -26 0 -9 4 -93 6 -187 4z"/>
<path d="M6089 5752 l-36 -3 0 -440 c0 -241 3 -440 6 -440 3 -1 203 -2 444 -3
l437 -1 0 442 0 443 -27 1 c-108 2 -795 3 -824 1z"/>
<path d="M3601 3162 c-4 -1 -35 -37 -67 -79 -32 -41 -84 -108 -115 -147 l-56
-71 0 -147 c0 -128 2 -148 16 -149 9 -1 351 -2 761 -4 410 -1 750 -3 756 -4 7
-1 10 -277 10 -907 -1 -563 3 -908 9 -912 5 -3 186 -6 403 -6 362 -1 395 0
401 16 3 9 6 487 5 1062 l-1 1045 -59 78 c-32 43 -85 111 -117 152 l-59 75
-939 0 c-516 1 -943 0 -948 -2z"/>
<path d="M5 3142 c-3 -3 -5 -691 -5 -1529 l0 -1523 418 0 c813 0 1718 1 1794
3 66 2 80 5 92 23 9 12 64 82 122 155 l108 134 0 1218 1 1218 -70 92 c-39 51
-92 119 -117 152 l-46 60 -1146 1 c-630 0 -1148 -2 -1151 -4z m1710 -1469 l1
-872 -54 -55 c-38 -39 -62 -56 -81 -56 -231 -3 -664 0 -669 5 -6 6 -12 1833
-6 1846 2 3 185 5 406 5 l403 -1 0 -872z"/>
<path d="M3370 2500 c-4 -3 -7 -481 -7 -1062 0 -1056 0 -1057 21 -1082 12 -14
37 -47 56 -73 19 -27 37 -50 40 -53 3 -3 21 -25 40 -50 19 -25 37 -47 41 -50
3 -3 11 -15 18 -27 l12 -23 952 0 952 1 90 120 c50 67 101 134 115 150 24 28
25 33 23 167 -1 75 -2 144 -2 152 -1 13 -92 15 -771 12 l-770 -3 0 913 0 913
-401 0 c-220 0 -404 -2 -409 -5z"/>
<path d="M6058 2065 c-6 0 -4 -872 2 -880 6 -6 161 -9 437 -8 235 1 431 2 436
2 4 1 7 200 7 444 l0 442 -440 0 c-242 0 -441 0 -442 0z"/>
</g>
</svg>
