<svg id="Layer_2" data-name="Layer 2" xmlns="http://www.w3.org/2000/svg" xmlns:xlink="http://www.w3.org/1999/xlink" viewBox="0 0 347.4 339.28"><defs><style>.cls-1{fill:url(#linear-gradient);}.cls-2{fill:url(#linear-gradient-2);}.cls-3{fill:url(#linear-gradient-3);}.cls-4{fill:url(#linear-gradient-4);}.cls-5{fill:url(#linear-gradient-5);}.cls-6{fill:url(#linear-gradient-6);}.cls-7{fill:url(#linear-gradient-7);}.cls-8{fill:url(#linear-gradient-8);}.cls-9{fill:url(#linear-gradient-9);}.cls-10{fill:url(#linear-gradient-10);}.cls-11{fill:#fff;stroke:#dadada;stroke-miterlimit:10;}.cls-12{fill:url(#linear-gradient-11);}.cls-13{fill:url(#linear-gradient-12);}.cls-14{fill:url(#linear-gradient-13);}.cls-15{fill:url(#linear-gradient-14);}.cls-16{fill:url(#linear-gradient-15);}.cls-17{fill:url(#linear-gradient-16);}.cls-18{fill:url(#linear-gradient-17);}.cls-19{fill:url(#linear-gradient-18);}.cls-20{fill:url(#linear-gradient-19);}.cls-21{fill:url(#linear-gradient-20);}.cls-22{fill:url(#linear-gradient-21);}.cls-23{fill:url(#linear-gradient-22);}.cls-24{fill:url(#linear-gradient-23);}.cls-25{fill:url(#linear-gradient-24);}.cls-26{fill:url(#linear-gradient-25);}.cls-27{fill:url(#linear-gradient-26);}.cls-28{fill:url(#linear-gradient-27);}.cls-29{fill:url(#linear-gradient-28);}.cls-30{fill:url(#linear-gradient-29);}.cls-31{fill:url(#linear-gradient-30);}.cls-32{fill:url(#linear-gradient-31);}.cls-33{fill:url(#linear-gradient-32);}.cls-34{fill:url(#linear-gradient-51);}.cls-35{fill:url(#linear-gradient-52);}.cls-36{fill:url(#linear-gradient-62);}</style><linearGradient id="linear-gradient" x1="0.75" y1="20.82" x2="126.1" y2="20.82" gradientUnits="userSpaceOnUse"><stop offset="0" stop-color="#00698b"/><stop offset="0.17" stop-color="#0c7a82"/><stop offset="0.49" stop-color="#1f9572"/><stop offset="0.78" stop-color="#2ba669"/><stop offset="1" stop-color="#2fac66"/></linearGradient><linearGradient id="linear-gradient-2" x1="42.29" y1="96.02" x2="83.1" y2="96.02" xlink:href="#linear-gradient"/><linearGradient id="linear-gradient-3" x1="37.94" y1="200.62" x2="93.75" y2="200.62" xlink:href="#linear-gradient"/><linearGradient id="linear-gradient-4" x1="41.57" y1="323.78" x2="87.24" y2="323.78" xlink:href="#linear-gradient"/><linearGradient id="linear-gradient-5" x1="0" y1="259.18" x2="45.19" y2="259.18" xlink:href="#linear-gradient"/><linearGradient id="linear-gradient-6" x1="86" y1="269.12" x2="126.81" y2="269.12" xlink:href="#linear-gradient"/><linearGradient id="linear-gradient-7" x1="173.34" y1="496.89" x2="214.16" y2="496.89" gradientTransform="matrix(1.08, 0, 0, 1.05, -103.94, -199.52)" xlink:href="#linear-gradient"/><linearGradient id="linear-gradient-8" x1="86" y1="200.8" x2="126.81" y2="200.8" xlink:href="#linear-gradient"/><linearGradient id="linear-gradient-9" x1="0" y1="200.62" x2="45.19" y2="200.62" xlink:href="#linear-gradient"/><linearGradient id="linear-gradient-10" x1="0" y1="319.68" x2="45.19" y2="319.68" xlink:href="#linear-gradient"/><linearGradient id="linear-gradient-11" x1="168.37" y1="78.38" x2="209.19" y2="78.38" xlink:href="#linear-gradient"/><linearGradient id="linear-gradient-12" x1="245.67" y1="74.33" x2="286.44" y2="74.33" xlink:href="#linear-gradient"/><linearGradient id="linear-gradient-13" x1="207" y1="14.94" x2="245.61" y2="14.94" xlink:href="#linear-gradient"/><linearGradient id="linear-gradient-14" x1="207" y1="139.42" x2="247.81" y2="139.42" xlink:href="#linear-gradient"/><linearGradient id="linear-gradient-15" x1="168.37" y1="14.94" x2="209.19" y2="14.94" xlink:href="#linear-gradient"/><linearGradient id="linear-gradient-16" x1="245.65" y1="15.12" x2="286.46" y2="15.12" xlink:href="#linear-gradient"/><linearGradient id="linear-gradient-17" x1="332.95" y1="312.32" x2="373.78" y2="312.32" gradientTransform="matrix(1, 0, 0, 1, -87.35, -174.29)" xlink:href="#linear-gradient"/><linearGradient id="linear-gradient-18" x1="168.37" y1="139.24" x2="209.19" y2="139.24" xlink:href="#linear-gradient"/><linearGradient id="linear-gradient-19" x1="390.35" y1="250.36" x2="434.74" y2="250.36" gradientTransform="translate(662.9 -162.19) rotate(90)" xlink:href="#linear-gradient"/><linearGradient id="linear-gradient-20" x1="390.35" y1="435.18" x2="434.74" y2="435.18" gradientTransform="translate(847.73 22.64) rotate(90)" xlink:href="#linear-gradient"/><linearGradient id="linear-gradient-21" x1="168.37" y1="263.45" x2="209.19" y2="263.45" xlink:href="#linear-gradient"/><linearGradient id="linear-gradient-22" x1="245.67" y1="257.89" x2="286.44" y2="257.89" xlink:href="#linear-gradient"/><linearGradient id="linear-gradient-23" x1="207" y1="199.76" x2="248.36" y2="199.76" xlink:href="#linear-gradient"/><linearGradient id="linear-gradient-24" x1="207" y1="324.24" x2="247.81" y2="324.24" xlink:href="#linear-gradient"/><linearGradient id="linear-gradient-25" x1="168.37" y1="199.76" x2="209.19" y2="199.76" xlink:href="#linear-gradient"/><linearGradient id="linear-gradient-26" x1="245.65" y1="199.95" x2="286.46" y2="199.95" xlink:href="#linear-gradient"/><linearGradient id="linear-gradient-27" x1="245.61" y1="324.18" x2="286.51" y2="324.18" xlink:href="#linear-gradient"/><linearGradient id="linear-gradient-28" x1="168.37" y1="324.07" x2="209.19" y2="324.07" xlink:href="#linear-gradient"/><linearGradient id="linear-gradient-29" x1="303" y1="262.08" x2="347.4" y2="262.08" xlink:href="#linear-gradient"/><linearGradient id="linear-gradient-30" x1="390.35" y1="250.36" x2="434.74" y2="250.36" gradientTransform="translate(297.86 -218.39) rotate(45)" xlink:href="#linear-gradient"/><linearGradient id="linear-gradient-31" x1="79.96" y1="305.97" x2="86.53" y2="305.97" xlink:href="#linear-gradient"/><linearGradient id="linear-gradient-32" x1="-172.35" y1="124.09" x2="347.4" y2="124.09" gradientUnits="userSpaceOnUse"><stop offset="0" stop-color="#00698b"/><stop offset="1" stop-color="#2fac66"/></linearGradient><linearGradient id="linear-gradient-51" x1="-85" y1="297.19" x2="434.74" y2="297.19" gradientTransform="translate(662.9 -162.19) rotate(90)" xlink:href="#linear-gradient-32"/><linearGradient id="linear-gradient-52" x1="-85" y1="297.19" x2="434.74" y2="297.19" gradientTransform="translate(847.73 22.64) rotate(90)" xlink:href="#linear-gradient-32"/><linearGradient id="linear-gradient-62" x1="-85" y1="297.19" x2="434.74" y2="297.19" gradientTransform="translate(297.86 -218.39) rotate(45)" xlink:href="#linear-gradient-32"/></defs><title>todo</title><polygon class="cls-1" points="0.75 41.64 0.75 0 126.1 0 126.1 41.64 42.29 41.64 0.75 41.64"/><rect class="cls-2" x="42.29" y="37.67" width="40.81" height="116.69"/><rect class="cls-3" x="37.94" y="185.68" width="55.81" height="29.88"/><polyline class="cls-4" points="87.24 308.84 41.57 308.84 41.57 338.72 87.24 338.72"/><rect class="cls-5" y="209.52" width="45.19" height="99.32"/><polyline class="cls-6" points="126.81 215.56 126.81 322.68 86 322.68 86 215.56"/><polygon class="cls-7" points="126.72 307.11 126.81 322.82 114.36 338.6 82.99 338.78 82.81 307.36 126.72 307.11"/><polygon class="cls-8" points="126.81 215.92 126.81 200.8 115.15 185.68 86 185.68 86 215.92 126.81 215.92"/><rect class="cls-9" y="185.68" width="45.19" height="29.88"/><rect class="cls-10" y="300.64" width="45.19" height="38.08"/><path class="cls-11" d="M-85,82" transform="translate(-87.35 -173.11)"/><rect class="cls-12" x="168.37" y="32.64" width="40.81" height="91.47"/><rect class="cls-13" x="245.67" y="27.02" width="40.77" height="94.62"/><polyline class="cls-14" points="245.61 0 207 0 207 29.88 245.61 29.88"/><polyline class="cls-15" points="247.81 124.48 207 124.48 207 154.36 247.81 154.36"/><polygon class="cls-16" points="168.38 29.88 168.38 14.94 180.04 0 209.19 0 209.19 29.88 168.38 29.88"/><polygon class="cls-17" points="286.46 30.25 286.46 15.12 274.8 0 245.65 0 245.65 30.25 286.46 30.25"/><polygon class="cls-18" points="286.35 124.18 286.43 139.15 274.88 154.19 245.78 154.36 245.61 124.42 286.35 124.18"/><polygon class="cls-19" points="168.38 124.12 168.38 139.24 180.04 154.36 209.19 154.36 209.19 124.12 168.38 124.12"/><rect class="cls-20" x="390.35" y="228.16" width="44.4" height="44.4" transform="translate(74.84 489.8) rotate(-90)"/><rect class="cls-21" x="390.35" y="412.98" width="44.4" height="44.4" transform="translate(-109.98 674.62) rotate(-90)"/><rect class="cls-22" x="168.37" y="217.89" width="40.81" height="91.12"/><rect class="cls-23" x="245.67" y="209.52" width="40.77" height="96.75"/><polyline class="cls-24" points="248.36 184.82 207 184.82 207 214.71 248.36 214.71"/><polyline class="cls-25" points="247.81 309.3 207 309.3 207 339.19 247.81 339.19"/><polygon class="cls-26" points="168.38 214.71 168.38 199.76 180.04 184.82 209.19 184.82 209.19 214.71 168.38 214.71"/><polygon class="cls-27" points="286.46 215.07 286.46 199.95 274.8 184.82 245.65 184.82 245.65 215.07 286.46 215.07"/><polygon class="cls-28" points="286.42 309.07 286.51 324.06 274.93 339.11 245.78 339.28 245.61 309.31 286.42 309.07"/><polygon class="cls-29" points="168.38 308.94 168.38 324.07 180.04 339.21 209.19 339.21 209.19 308.94 168.38 308.94"/><polygon class="cls-30" points="303 262.08 325.2 284.27 347.4 262.2 325.2 239.88 303 262.08"/><rect class="cls-31" x="396.85" y="234.66" width="31.39" height="31.39" transform="translate(-143.54 191.94) rotate(-45)"/><polyline class="cls-32" points="86.53 302.72 79.96 309.23 86.53 309.23"/><polygon class="cls-33" points="0.75 41.64 0.75 0 126.1 0 126.1 41.64 42.29 41.64 0.75 41.64"/><rect class="cls-33" x="42.29" y="37.67" width="40.81" height="116.69"/><rect class="cls-33" x="37.94" y="185.68" width="55.81" height="29.88"/><polyline class="cls-33" points="87.24 308.84 41.57 308.84 41.57 338.72 87.24 338.72"/><rect class="cls-33" y="209.52" width="45.19" height="99.32"/><polyline class="cls-33" points="126.81 215.56 126.81 322.68 86 322.68 86 215.56"/><polygon class="cls-33" points="126.72 307.11 126.81 322.82 114.36 338.6 82.99 338.78 82.81 307.36 126.72 307.11"/><polygon class="cls-33" points="126.81 215.92 126.81 200.8 115.15 185.68 86 185.68 86 215.92 126.81 215.92"/><rect class="cls-33" y="185.68" width="45.19" height="29.88"/><rect class="cls-33" y="300.64" width="45.19" height="38.08"/><path class="cls-33" d="M-85,82" transform="translate(-87.35 -173.11)"/><rect class="cls-33" x="168.37" y="32.64" width="40.81" height="91.47"/><rect class="cls-33" x="245.67" y="27.02" width="40.77" height="94.62"/><polyline class="cls-33" points="245.61 0 207 0 207 29.88 245.61 29.88"/><polyline class="cls-33" points="247.81 124.48 207 124.48 207 154.36 247.81 154.36"/><polygon class="cls-33" points="168.38 29.88 168.38 14.94 180.04 0 209.19 0 209.19 29.88 168.38 29.88"/><polygon class="cls-33" points="286.46 30.25 286.46 15.12 274.8 0 245.65 0 245.65 30.25 286.46 30.25"/><polygon class="cls-33" points="286.35 124.18 286.43 139.15 274.88 154.19 245.78 154.36 245.61 124.42 286.35 124.18"/><polygon class="cls-33" points="168.38 124.12 168.38 139.24 180.04 154.36 209.19 154.36 209.19 124.12 168.38 124.12"/><rect class="cls-34" x="390.35" y="228.16" width="44.4" height="44.4" transform="translate(74.84 489.8) rotate(-90)"/><rect class="cls-35" x="390.35" y="412.98" width="44.4" height="44.4" transform="translate(-109.98 674.62) rotate(-90)"/><rect class="cls-33" x="168.37" y="217.89" width="40.81" height="91.12"/><rect class="cls-33" x="245.67" y="209.52" width="40.77" height="96.75"/><polyline class="cls-33" points="248.36 184.82 207 184.82 207 214.71 248.36 214.71"/><polyline class="cls-33" points="247.81 309.3 207 309.3 207 339.19 247.81 339.19"/><polygon class="cls-33" points="168.38 214.71 168.38 199.76 180.04 184.82 209.19 184.82 209.19 214.71 168.38 214.71"/><polygon class="cls-33" points="286.46 215.07 286.46 199.95 274.8 184.82 245.65 184.82 245.65 215.07 286.46 215.07"/><polygon class="cls-33" points="286.42 309.07 286.51 324.06 274.93 339.11 245.78 339.28 245.61 309.31 286.42 309.07"/><polygon class="cls-33" points="168.38 308.94 168.38 324.07 180.04 339.21 209.19 339.21 209.19 308.94 168.38 308.94"/><polygon class="cls-33" points="303 262.08 325.2 284.27 347.4 262.2 325.2 239.88 303 262.08"/><rect class="cls-36" x="396.85" y="234.66" width="31.39" height="31.39" transform="translate(-143.54 191.94) rotate(-45)"/><polyline class="cls-33" points="86.53 302.72 79.96 309.23 86.53 309.23"/></svg>